<svg width="300" height="200" viewBox="0 0 300 200" fill="none" xmlns="http://www.w3.org/2000/svg">
<rect width="300" height="200" fill="#5A78FF"/>
<path d="M140.39 116.838C137.734 116.839 135.338 115.235 134.32 112.776L111.659 57.9474C110.272 54.5926 111.862 50.7466 115.209 49.3566L138.944 39.5042C140.552 38.8366 142.358 38.8365 143.965 39.5038C145.573 40.1711 146.85 41.4511 147.515 43.0622L170.177 97.8931C171.561 101.247 169.972 105.091 166.626 106.481L142.891 116.337C142.098 116.668 141.248 116.838 140.39 116.838ZM141.455 42.5408C141.058 42.5415 140.664 42.6209 140.297 42.7744L116.56 52.6268C115.818 52.9348 115.229 53.5257 114.921 54.2694C114.614 55.0131 114.614 55.8486 114.922 56.5922L137.583 111.424C138.225 112.971 139.994 113.706 141.54 113.067L165.275 103.208C166.017 102.9 166.607 102.309 166.914 101.565C167.221 100.822 167.221 99.9862 166.914 99.2427L144.252 44.4163C143.783 43.2826 142.68 42.5429 141.455 42.5408Z" fill="white"/>
<path style="mix-blend-mode:multiply" opacity="0.5" d="M149.011 46.678L145.748 48.0327L154.721 69.7426L157.984 68.388L149.011 46.678Z" fill="url(#paint0_linear_9_67)"/>
<path style="mix-blend-mode:multiply" opacity="0.5" d="M165.406 95.6017L168.669 94.2471L158.512 69.6722L155.249 71.0269L165.406 95.6017Z" fill="url(#paint1_linear_9_67)"/>
<path d="M161.285 79.312C154.497 82.1331 148.829 86.0217 145.118 90.7092L135.55 67.5491C139.914 62.4671 145.47 58.5508 151.717 56.1519C158.505 53.3308 165.363 51.9653 171.19 52.7609L180.76 75.9199C174.088 75.4163 167.396 76.5819 161.285 79.312Z" fill="white"/>
<g style="mix-blend-mode:multiply" opacity="0.25">
<path opacity="0.9" d="M161.285 79.312C154.497 82.1331 148.829 86.0217 145.118 90.7092L135.55 67.5491C139.914 62.4671 145.47 58.5508 151.717 56.1519C158.505 53.3308 165.363 51.9653 171.19 52.7609L180.76 75.9199C174.088 75.4163 167.396 76.5819 161.285 79.312Z" fill="url(#paint2_linear_9_67)"/>
<path opacity="0.7" d="M161.285 79.312C154.497 82.1331 148.829 86.0217 145.118 90.7092L135.55 67.5491C139.914 62.4671 145.47 58.5508 151.717 56.1519C158.505 53.3308 165.363 51.9653 171.19 52.7609L180.76 75.9199C174.088 75.4163 167.396 76.5819 161.285 79.312Z" fill="url(#paint3_linear_9_67)"/>
</g>
<path d="M164.403 86.3729C157.055 86.3729 150.329 87.7959 145.116 90.7005V67.2831C151.088 64.2625 157.715 62.7755 164.403 62.9555C171.751 62.9555 178.609 64.3209 183.689 67.2887V90.7061C177.717 87.6831 171.09 86.1941 164.403 86.3729Z" fill="white"/>
<path d="M75.1259 155.105L81.0708 136.271C81.1332 136.01 81.3557 135.819 81.6225 135.797H84.6062C84.8737 135.835 85.0987 136.017 85.1917 136.271L89.8192 148.154C89.9093 148.391 90.1457 148.413 90.2246 148.154L94.8296 136.271C94.9225 136.017 95.1476 135.835 95.4151 135.797H98.3988C98.6656 135.819 98.8881 136.01 98.9505 136.271L104.772 155.105C104.84 155.25 104.826 155.42 104.736 155.553C104.646 155.685 104.492 155.759 104.332 155.748H100.808C100.557 155.759 100.334 155.588 100.279 155.342L96.5185 143.109C96.4622 142.872 96.192 142.872 96.1131 143.109L91.6094 155.251C91.5328 155.544 91.2692 155.748 90.9677 155.748H88.9185C88.6195 155.754 88.359 155.545 88.2992 155.251L83.7054 143.109C83.6154 142.872 83.3789 142.872 83.3226 143.109L79.4607 155.342C79.4007 155.594 79.1673 155.766 78.909 155.748H75.5312C75.375 155.754 75.2275 155.676 75.144 155.543C75.0605 155.411 75.0536 155.244 75.1259 155.105ZM105.931 148.391C105.867 145.182 107.746 142.254 110.686 140.981C113.625 139.709 117.041 140.345 119.328 142.591C121.614 144.837 122.318 148.247 121.108 151.218C119.898 154.189 117.015 156.131 113.813 156.132C111.729 156.203 109.707 155.415 108.218 153.953C106.729 152.49 105.902 150.48 105.931 148.391ZM117.641 148.391C117.752 146.937 117.041 145.544 115.8 144.783C114.56 144.023 112.998 144.023 111.758 144.783C110.517 145.544 109.806 146.937 109.917 148.391C109.806 149.844 110.517 151.237 111.758 151.998C112.998 152.758 114.56 152.758 115.8 151.998C117.041 151.237 117.752 149.844 117.641 148.391ZM128.641 154.552C128.348 154.315 128.089 154.405 128.089 154.811V155.229C128.09 155.526 127.856 155.77 127.56 155.782H124.813C124.513 155.77 124.273 155.529 124.261 155.229V136.361C124.273 136.061 124.513 135.82 124.813 135.808H127.707C128.003 135.821 128.236 136.065 128.236 136.361V141.688C128.236 142.071 128.495 142.184 128.911 141.891C130.02 141.059 131.366 140.608 132.751 140.604C136.759 140.604 139.833 143.99 139.833 148.345C139.927 150.337 139.216 152.282 137.859 153.739C136.502 155.197 134.615 156.043 132.627 156.087C131.155 156.083 129.737 155.537 128.641 154.552ZM135.847 148.391C135.924 146.956 135.205 145.596 133.976 144.855C132.748 144.114 131.211 144.114 129.983 144.855C128.754 145.596 128.035 146.956 128.112 148.391C128.072 149.444 128.457 150.468 129.179 151.235C129.901 152.001 130.9 152.444 131.951 152.464C133.008 152.444 134.012 152.002 134.743 151.238C135.474 150.474 135.871 149.449 135.847 148.391ZM142.254 137.174C142.254 135.927 143.262 134.917 144.505 134.917C145.749 134.917 146.757 135.927 146.757 137.174C146.757 138.42 145.749 139.431 144.505 139.431C143.262 139.431 142.254 138.42 142.254 137.174ZM142.456 155.229V141.575C142.456 141.278 142.69 141.034 142.985 141.022H145.879C146.179 141.033 146.419 141.274 146.431 141.575V155.229C146.419 155.529 146.179 155.77 145.879 155.782H142.985C142.694 155.764 142.467 155.522 142.468 155.229H142.456ZM149.707 150.715V136.361C149.707 136.065 149.941 135.821 150.236 135.808H153.13C153.43 135.82 153.67 136.061 153.682 136.361V150.851C153.682 151.787 154.087 152.408 155.112 152.408C155.416 152.408 155.663 152.655 155.663 152.961V155.364C155.651 155.661 155.408 155.895 155.112 155.895C151.261 155.895 149.707 154.631 149.707 150.715ZM156.733 148.458C156.733 145.733 158.184 143.215 160.539 141.852C162.894 140.489 165.795 140.489 168.15 141.852C170.505 143.215 171.956 145.733 171.956 148.458C171.956 148.989 171.809 149.429 171.28 149.429H161.214C160.955 149.429 160.865 149.575 160.888 149.812C161.137 151.566 162.693 152.831 164.457 152.712C165.525 152.727 166.545 152.264 167.238 151.449C167.453 151.146 167.802 150.969 168.172 150.975H170.83C171.302 150.975 171.505 151.302 171.325 151.765C169.747 154.99 166.159 156.7 162.666 155.892C159.174 155.085 156.697 151.972 156.688 148.379L156.733 148.458ZM167.418 147.104C167.621 147.104 167.711 147.014 167.677 146.777C167.37 145.157 165.944 143.995 164.299 144.024C162.692 144.026 161.296 145.132 160.921 146.698C160.865 146.901 160.921 147.104 161.158 147.104H167.418ZM174.388 155.229V136.361C174.387 136.065 174.621 135.821 174.917 135.808H184.138C188.349 135.808 191.22 138.268 191.22 142.41C191.22 146.551 187.966 149.101 183.935 149.101H179.049C178.9 149.086 178.753 149.14 178.649 149.248C178.546 149.356 178.498 149.506 178.52 149.654V155.229C178.508 155.529 178.268 155.77 177.968 155.782H174.928C174.628 155.776 174.387 155.53 174.388 155.229ZM183.935 145.727C184.783 145.716 185.592 145.364 186.18 144.752C186.768 144.139 187.087 143.316 187.065 142.466C187.101 141.624 186.782 140.805 186.188 140.209C185.593 139.613 184.776 139.294 183.935 139.329H179.015C178.666 139.329 178.52 139.51 178.52 139.86V145.197C178.52 145.547 178.666 145.727 179.015 145.727H183.935ZM192.594 148.391C192.518 146.395 193.244 144.452 194.609 142.997C195.974 141.542 197.864 140.696 199.856 140.649C201.294 140.657 202.679 141.191 203.752 142.15C204.011 142.387 204.303 142.353 204.303 142.004V141.564C204.303 141.271 204.54 141.033 204.833 141.033H207.58C207.88 141.045 208.12 141.286 208.132 141.586V151.302C208.132 152.035 208.39 152.363 208.897 152.43C209.16 152.436 209.375 152.641 209.393 152.904V155.455C209.393 155.729 209.171 155.951 208.897 155.951C206.961 155.951 205.823 155.398 205.182 154.281C205.001 153.988 204.799 153.931 204.506 154.225C203.269 155.501 201.563 156.211 199.788 156.188C197.796 156.13 195.911 155.271 194.557 153.804C193.204 152.337 192.496 150.386 192.594 148.391ZM204.303 148.391C204.414 146.941 203.705 145.552 202.468 144.794C201.231 144.035 199.674 144.035 198.437 144.794C197.2 145.552 196.491 146.941 196.602 148.391C196.491 149.84 197.2 151.229 198.437 151.988C199.674 152.746 201.231 152.746 202.468 151.988C203.705 151.229 204.414 149.84 204.303 148.391ZM210.8 160.871V158.49C210.812 158.194 211.056 157.959 211.352 157.96C213.237 158.105 214.976 156.94 215.563 155.139C215.662 154.761 215.622 154.361 215.45 154.01L210.068 141.8C209.975 141.634 209.978 141.431 210.076 141.268C210.174 141.105 210.351 141.006 210.541 141.011H213.435C213.727 141.011 213.908 141.248 214.02 141.541L217.398 149.35C217.634 149.97 218.017 149.937 218.276 149.35L221.496 141.518C221.609 141.225 221.755 141.044 222.048 141.044H224.874C225.047 141.035 225.213 141.116 225.314 141.258C225.414 141.4 225.435 141.583 225.369 141.744L219.841 154.913C217.826 159.698 215.686 161.48 211.408 161.48C211.244 161.49 211.083 161.429 210.967 161.313C210.851 161.196 210.79 161.036 210.8 160.871Z" fill="white"/>
<defs>
<linearGradient id="paint0_linear_9_67" x1="986.733" y1="1632" x2="839.584" y2="-80.9753" gradientUnits="userSpaceOnUse">
<stop stop-color="#504678"/>
<stop offset="0.302" stop-color="#504678" stop-opacity="0.616"/>
<stop offset="0.608" stop-color="#504678" stop-opacity="0.283"/>
<stop offset="0.852" stop-color="#504678" stop-opacity="0.076"/>
<stop offset="1" stop-color="#504678" stop-opacity="0"/>
</linearGradient>
<linearGradient id="paint1_linear_9_67" x1="-762.305" y1="-1707.46" x2="-670.017" y2="211.951" gradientUnits="userSpaceOnUse">
<stop stop-color="#504678"/>
<stop offset="0.302" stop-color="#504678" stop-opacity="0.616"/>
<stop offset="0.608" stop-color="#504678" stop-opacity="0.283"/>
<stop offset="0.852" stop-color="#504678" stop-opacity="0.076"/>
<stop offset="1" stop-color="#504678" stop-opacity="0"/>
</linearGradient>
<linearGradient id="paint2_linear_9_67" x1="755.023" y1="2584.94" x2="2550.47" y2="1363.68" gradientUnits="userSpaceOnUse">
<stop stop-color="#504678"/>
<stop offset="0.179" stop-color="#504678" stop-opacity="0.872"/>
<stop offset="0.526" stop-color="#504678" stop-opacity="0.536"/>
<stop offset="1" stop-color="#504678" stop-opacity="0"/>
</linearGradient>
<linearGradient id="paint3_linear_9_67" x1="2293.17" y1="1387.47" x2="2213.29" y2="750.014" gradientUnits="userSpaceOnUse">
<stop stop-color="#504678"/>
<stop offset="0.643" stop-color="#504678" stop-opacity="0.332"/>
<stop offset="1" stop-color="#504678" stop-opacity="0"/>
</linearGradient>
</defs>
</svg>
