<svg width="300" height="200" viewBox="0 0 300 200" fill="none" xmlns="http://www.w3.org/2000/svg">
<rect width="300" height="200" fill="white"/>
<g clip-path="url(#clip0_9_69)">
<path d="M144.592 99.0953V122.369H137.203V64.881H156.79C161.515 64.7804 166.081 66.5733 169.474 69.8573C172.909 72.9487 174.844 77.3721 174.769 81.9882C174.869 86.6378 172.934 91.0947 169.474 94.1944C166.047 97.4617 161.817 99.0953 156.79 99.087L144.592 99.0953ZM144.592 71.9601V92.033H156.974C159.722 92.1168 162.37 91.036 164.28 89.0589C168.159 85.289 168.251 79.0811 164.472 75.2022C164.405 75.1352 164.347 75.0682 164.28 75.0096C162.395 72.9905 159.731 71.8847 156.974 71.9601H144.592ZM191.792 81.7536C197.254 81.7536 201.56 83.2113 204.719 86.1267C207.877 89.0422 209.452 93.0467 209.452 98.1235V122.369H202.39V116.906H202.071C199.014 121.405 194.942 123.65 189.865 123.65C185.534 123.65 181.906 122.369 178.991 119.797C176.159 117.409 174.551 113.874 174.618 110.162C174.618 106.091 176.159 102.857 179.234 100.453C182.308 98.0481 186.414 96.8418 191.557 96.8418C195.939 96.8418 199.558 97.646 202.39 99.2461V97.5539C202.406 95.0238 201.284 92.6278 199.34 91.0193C197.388 89.26 194.841 88.2965 192.211 88.33C188.089 88.33 184.822 90.0726 182.417 93.5493L175.916 89.4527C179.485 84.3171 184.78 81.7536 191.792 81.7536ZM182.233 110.33C182.225 112.24 183.138 114.033 184.679 115.147C186.313 116.429 188.34 117.116 190.418 117.074C193.535 117.065 196.525 115.826 198.729 113.622C201.175 111.318 202.398 108.621 202.398 105.513C200.094 103.678 196.886 102.756 192.764 102.756C189.765 102.756 187.26 103.477 185.257 104.926C183.238 106.401 182.233 108.185 182.233 110.33ZM250 83.0354L225.345 139.71H217.721L226.869 119.88L210.65 83.0354H218.676L230.396 111.293H230.555L241.957 83.0354H250Z" fill="#5F6368"/>
<path d="M114.742 94.0685C114.742 91.8149 114.558 89.5697 114.173 87.3496H83.0247V100.067H100.861C100.123 104.172 97.7442 107.799 94.2675 110.103V118.364H104.915C111.148 112.625 114.742 104.122 114.742 94.0685Z" fill="#4285F4"/>
<path d="M83.0247 126.348C91.9385 126.348 99.4449 123.424 104.916 118.372L94.2675 110.112C91.3018 112.122 87.49 113.27 83.0247 113.27C74.4125 113.27 67.0988 107.464 64.4849 99.6396H53.5186V108.151C59.1232 119.31 70.542 126.348 83.0247 126.348Z" fill="#34A853"/>
<path d="M64.485 99.6399C63.1027 95.5433 63.1027 91.0947 64.485 86.998V78.4863H53.5186C48.8271 87.819 48.8271 98.8189 53.5186 108.152L64.485 99.6399Z" fill="#FBBC04"/>
<path d="M83.0247 73.3676C87.7329 73.2922 92.282 75.0683 95.6917 78.3188L105.125 68.894C99.1433 63.2809 91.2264 60.1979 83.0247 60.2901C70.542 60.2901 59.1232 67.3357 53.5186 78.4864L64.4849 86.9981C67.0987 79.1734 74.4125 73.3676 83.0247 73.3676Z" fill="#EA4335"/>
</g>
<defs>
<clipPath id="clip0_9_69">
<rect width="200" height="200" fill="white" transform="translate(50)"/>
</clipPath>
</defs>
</svg>
