<svg width="300" height="200" viewBox="0 0 300 200" fill="none" xmlns="http://www.w3.org/2000/svg">
<g clip-path="url(#clip0_9_65)">
<rect width="300" height="200" fill="white"/>
<path d="M121.456 129.113L131.293 71.3886H147.027L137.183 129.113H121.456ZM194.027 72.6329C190.911 71.4635 186.026 70.2085 179.926 70.2085C164.379 70.2085 153.428 78.0376 153.334 89.2584C153.247 97.5528 161.153 102.18 167.121 104.941C173.245 107.771 175.304 109.575 175.274 112.102C175.235 115.971 170.384 117.738 165.861 117.738C159.564 117.738 156.218 116.863 151.051 114.709L149.023 113.791L146.815 126.713C150.49 128.325 157.285 129.721 164.342 129.793C180.881 129.793 191.618 122.053 191.74 110.071C191.799 103.504 187.607 98.5073 178.529 94.3871C173.03 91.7167 169.662 89.9348 169.698 87.2309C169.698 84.8315 172.549 82.2658 178.709 82.2658C183.853 82.1859 187.581 83.3079 190.485 84.4773L191.895 85.1435L194.027 72.6329ZM234.516 71.3877H222.358C218.592 71.3877 215.773 72.4156 214.12 76.1746L190.753 129.075H207.274C207.274 129.075 209.975 121.962 210.586 120.4C212.392 120.4 228.442 120.425 230.737 120.425C231.207 122.446 232.651 129.075 232.651 129.075H247.251L234.516 71.3859V71.3877ZM215.226 108.662C216.528 105.337 221.495 92.5259 221.495 92.5259C221.403 92.6795 222.787 89.1838 223.581 87.0165L224.645 91.9933C224.645 91.9933 227.657 105.772 228.287 108.662H215.226V108.662ZM108.099 71.3877L92.6956 110.753L91.0546 102.754C88.1867 93.5317 79.2524 83.5405 69.2642 78.5386L83.3493 129.021L99.9963 129.002L124.767 71.3871L108.099 71.3868" fill="#0E4595"/>
<path d="M78.3227 71.3857H52.9516L52.7505 72.5868C72.4889 77.3649 85.5491 88.9117 90.9718 102.788L85.455 76.2609C84.5029 72.6056 81.7405 71.5146 78.3232 71.3872" fill="#F2AE14"/>
</g>
<defs>
<clipPath id="clip0_9_65">
<rect width="300" height="200" fill="white"/>
</clipPath>
</defs>
</svg>
