<svg width="300" height="200" viewBox="0 0 300 200" fill="none" xmlns="http://www.w3.org/2000/svg">
<rect width="300" height="200" fill="white"/>
<path d="M86.5438 69.3762C84.1998 72.15 80.4493 74.3377 76.6989 74.0252C76.2301 70.2748 78.0662 66.2899 80.2149 63.8287C82.5589 60.9768 86.661 58.9453 89.9817 58.7891C90.3723 62.6958 88.8487 66.5243 86.5438 69.3762ZM89.9426 74.7675C84.5123 74.4549 79.8633 77.8537 77.2849 77.8537C74.6674 77.8537 70.7216 74.9237 66.4243 75.0019C60.8377 75.08 55.6418 78.2444 52.7899 83.2841C46.9299 93.3633 51.2663 108.287 56.931 116.491C59.7048 120.554 63.0255 125.008 67.401 124.851C71.5421 124.695 73.1829 122.156 78.1834 122.156C83.2231 122.156 84.6686 124.851 89.0441 124.773C93.5758 124.695 96.4277 120.71 99.2015 116.647C102.366 112.037 103.655 107.545 103.733 107.31C103.655 107.232 94.9822 103.911 94.9041 93.9103C94.826 85.5499 101.741 81.5651 102.053 81.3307C98.1467 75.5488 92.0522 74.9237 89.9426 74.7675ZM121.313 63.438V124.343H130.768V103.521H143.855C155.81 103.521 164.209 95.3167 164.209 83.4403C164.209 71.564 155.966 63.438 144.168 63.438H121.313ZM130.768 71.4077H141.667C149.871 71.4077 154.559 75.7832 154.559 83.4794C154.559 91.1756 149.871 95.5902 141.628 95.5902H130.768V71.4077ZM181.477 124.812C187.415 124.812 192.923 121.804 195.423 117.038H195.619V124.343H204.37V94.0275C204.37 85.2374 197.338 79.5727 186.516 79.5727C176.476 79.5727 169.053 85.3155 168.78 93.2071H177.296C178 89.4566 181.477 86.9954 186.243 86.9954C192.025 86.9954 195.267 89.691 195.267 94.6525V98.0123L183.469 98.7155C172.491 99.3796 166.553 103.872 166.553 111.686C166.553 119.577 172.686 124.812 181.477 124.812ZM184.016 117.585C178.976 117.585 175.773 115.163 175.773 111.451C175.773 107.623 178.859 105.396 184.758 105.044L195.267 104.38V107.818C195.267 113.522 190.423 117.585 184.016 117.585ZM216.051 140.908C225.271 140.908 229.607 137.392 233.397 126.727L250 80.1587H240.39L229.255 116.139H229.06L217.926 80.1587H208.042L224.06 124.5L223.2 127.195C221.755 131.766 219.411 133.524 215.23 133.524C214.488 133.524 213.043 133.446 212.457 133.368V140.673C213.004 140.83 215.348 140.908 216.051 140.908Z" fill="black"/>
</svg>
