<svg width="45" height="44" viewBox="0 0 45 44" fill="none" xmlns="http://www.w3.org/2000/svg">
<g clip-path="url(#clip0_129_3)">
<path d="M42.9136 27.9202L37.4506 5.43907C37.2608 4.65821 36.6898 4.09257 36.0082 4.01029C35.3308 3.92842 34.6793 4.34066 34.3586 5.05211L34.3583 5.05187L24.5338 26.8449C23.4002 26.0388 22.1808 25.3854 20.8948 24.9104C23.6374 22.9432 25.4707 19.3725 25.4707 15.2939C25.4707 9.09123 21.231 4.06305 16.001 4.06305C10.771 4.06305 6.5313 9.09123 6.5313 15.2939C6.5313 19.3303 8.32713 22.8688 11.0226 24.8485C4.06842 27.3191 -1 34.9656 -1 44.0172V48H32.7425V44.0172C32.7425 38.17 30.6272 32.909 27.2553 29.2506L29.5192 24.2287L40.6123 30.356C40.6223 30.3615 40.6322 30.3669 40.6422 30.3721C40.7797 30.4444 40.9269 30.4955 41.0809 30.5217C41.1605 30.5354 41.2407 30.5421 41.3206 30.5421C41.3286 30.5421 41.3367 30.542 41.3447 30.5419C42.2611 30.5275 43 29.642 43 28.5518C43 28.331 42.9697 28.1188 42.9137 27.9202L42.9136 27.9202Z" fill="#F56504"/>
</g>
<defs>
<clipPath id="clip0_129_3">
<rect width="44" height="44" fill="white" transform="translate(0.199951)"/>
</clipPath>
</defs>
</svg>
